<svg width="363.347" height="221.36" viewBox="0 0 272.51 166.02" class="displayed_equation" xmlns="http://www.w3.org/2000/svg">
  <path d="M262.460938 279.067188L2601.171875 279.067188 2201.210938 1377.895313 1324.21875 1377.895313zM262.460938 329.028125L262.460938 1328.129688" transform="matrix(.1 0 0 -.1 0 166.02)" fill="none" stroke-width="7.97" stroke-linecap="round" stroke-linejoin="round" stroke="#000" stroke-miterlimit="10" />
  <path d="M 26.246094 136.980469 L 28.3125 131.511719 L 26.246094 133.316406 L 24.183594 131.511719" />
  <path d="M 262.460938 290.395313 L 283.125 345.082813 L 262.460938 327.035938 L 241.835938 345.082813 Z M 262.460938 290.395313" transform="matrix(.1 0 0 -.1 0 166.02)" fill="none" stroke-width="7.97" stroke-linecap="round" stroke="#000" stroke-miterlimit="10" />
  <path d="M 26.246094 29.34375 L 24.183594 34.8125 L 26.246094 33.007813 L 28.3125 34.8125" />
  <path d="M 262.460938 1366.7625 L 241.835938 1312.075 L 262.460938 1330.121875 L 283.125 1312.075 Z M 262.460938 1366.7625" transform="matrix(.1 0 0 -.1 0 166.02)" fill="none" stroke-width="7.97" stroke-linecap="round" stroke="#000" stroke-miterlimit="10" />
  <path d="M21.589844 85.769531C21.421875 85.984375 21.15625 86.351563 20.753906 86.351563 20.609375 86.351563 20.542969 86.261719 20.542969 86.140625 20.542969 86.003906 20.585938 85.871094 20.585938 85.871094L21.210938 83.292969C21.246094 83.136719 21.3125 82.757813 21.3125 82.46875 21.3125 82.066406 21.144531 81.675781 20.574219 81.675781 19.257813 81.675781 18.234375 83.292969 17.765625 84.132813L17.675781 84.132813 18.800781 79.144531 18.546875 79.144531 17.003906 79.265625 17.003906 79.566406C17.003906 79.566406 17.226563 79.546875 17.375 79.546875 17.628906 79.546875 17.730469 79.65625 17.730469 79.835938 17.730469 80.003906 17.695313 80.214844 17.695313 80.214844L16.226563 87.019531 17.140625 87.019531 17.539063 85.257813C17.898438 84.488281 19.191406 82.480469 20.015625 82.480469 20.273438 82.480469 20.351563 82.667969 20.351563 82.925781 20.351563 83.148438 20.273438 83.460938 20.273438 83.460938L19.617188 86.039063C19.59375 86.09375 19.558594 86.296875 19.558594 86.472656 19.558594 86.808594 19.726563 87.132813 20.285156 87.132813 21.089844 87.132813 21.535156 86.351563 21.824219 85.9375L21.589844 85.769531M142.070313 138.113281L136.601563 136.050781 138.40625 138.113281 136.601563 140.179688" />
  <path d="M 1420.703125 279.067188 L 1366.015625 299.692188 L 1384.0625 279.067188 L 1366.015625 258.403125 Z M 1420.703125 279.067188" transform="matrix(.1 0 0 -.1 0 166.02)" fill="none" stroke-width="7.97" stroke-linecap="round" stroke="#000" stroke-miterlimit="10" />
  <path d="M 183.054688 28.210938 L 177.589844 30.273438 L 179.390625 28.210938 L 177.589844 26.144531" />
  <path d="M 1830.546875 1378.090625 L 1775.898438 1357.465625 L 1793.90625 1378.090625 L 1775.898438 1398.754688 Z M 1830.546875 1378.090625" transform="matrix(.1 0 0 -.1 0 166.02)" fill="none" stroke-width="7.97" stroke-linecap="round" stroke="#000" stroke-miterlimit="10" />
  <path d="M142.507813 145.636719L143.167969 142.253906 142.921875 142.253906 141.382813 142.378906 141.382813 142.667969C141.382813 142.667969 141.59375 142.644531 141.71875 142.644531 141.941406 142.644531 142.117188 142.722656 142.117188 142.96875 142.117188 143.101563 142.085938 143.316406 142.074219 143.359375L140.8125 149.839844C141.359375 150.121094 141.929688 150.253906 142.578125 150.253906 144.5625 150.253906 145.6875 148.558594 145.6875 146.726563 145.6875 145.390625 144.996094 144.777344 144.117188 144.777344 143.523438 144.777344 143.042969 145.101563 142.5625 145.636719zM142.351563 146.59375C142.589844 146.070313 143.078125 145.402344 143.792969 145.402344 144.292969 145.402344 144.707031 145.769531 144.707031 146.773438 144.707031 148.46875 144.070313 149.785156 142.742188 149.785156 142.273438 149.785156 141.953125 149.515625 141.804688 149.382813L142.351563 146.59375M178.800781 15.855469L178.210938 15.855469 177.808594 16.367188 177.761719 16.367188C177.574219 16.089844 177.214844 15.777344 176.648438 15.777344 175.050781 15.777344 173.769531 17.449219 173.757813 19.59375 173.746094 20.71875 174.328125 21.253906 175.0625 21.253906 175.710938 21.253906 176.402344 20.886719 176.980469 20.171875L177.058594 20.171875C177.027344 20.371094 176.980469 20.515625 176.980469 20.730469 176.980469 21.054688 177.214844 21.230469 177.59375 21.230469 178.296875 21.230469 178.757813 20.730469 179.214844 20.035156L178.992188 19.871094C178.84375 20.0625 178.523438 20.449219 178.164063 20.449219 177.984375 20.449219 177.941406 20.359375 177.941406 20.21875 177.941406 20.050781 177.996094 19.804688 177.996094 19.804688zM177.539063 17.246094C177.539063 17.640625 177.339844 18.664063 177.226563 19.113281 177.015625 19.914063 176.289063 20.515625 175.589844 20.515625 175.074219 20.515625 174.738281 20.226563 174.738281 19.246094 174.738281 17.726563 175.453125 16.199219 176.570313 16.199219 177.195313 16.199219 177.539063 16.714844 177.539063 17.246094" />
  <path d="M 1324.414063 1378.090625 L 262.460938 1378.325" transform="matrix(.1 0 0 -.1 0 166.02)" fill="none" stroke-width="7.97" stroke-linecap="round" stroke-linejoin="round" stroke="#000" stroke-dasharray="29.8883,29.8883" stroke-miterlimit="10" />
</svg>